<?xml version="1.0" encoding="iso-8859-1"?>
<!-- Generator: Adobe Illustrator 21.1.0, SVG Export Plug-In . SVG Version: 6.00 Build 0)  -->
<svg version="1.1" id="Layer_1" xmlns="http://www.w3.org/2000/svg" xmlns:xlink="http://www.w3.org/1999/xlink" x="0px" y="0px"
	 viewBox="0 0 124.918 23.533" style="enable-background:new 0 0 124.918 23.533;" xml:space="preserve">
<g>
	<g>
		<path style="fill-rule:evenodd;clip-rule:evenodd;fill:#868586;" d="M72.999,8.714h-4.871v2.51h4.871
			c0.401,0,0.653-0.049,0.804-0.2c0.1-0.1,0.201-0.301,0.201-0.552V9.467c0-0.251-0.1-0.452-0.201-0.552
			C73.652,8.764,73.4,8.714,72.999,8.714L72.999,8.714z M65.969,16.446V7.107h8.035c0.703,0,1.255,0.15,1.605,0.452
			c0.302,0.251,0.503,0.753,0.503,1.356v2.108c0,0.603-0.201,1.105-0.503,1.356c-0.351,0.302-0.903,0.452-1.605,0.452h-5.876v3.615
			H65.969L65.969,16.446z"/>
		<path style="fill-rule:evenodd;clip-rule:evenodd;fill:#868586;" d="M84.965,8.714h-4.873v2.611h4.873
			c0.401,0,0.653-0.051,0.803-0.15c0.101-0.101,0.202-0.302,0.202-0.603V9.467c0-0.251-0.102-0.452-0.202-0.552
			C85.618,8.764,85.366,8.714,84.965,8.714L84.965,8.714z M77.934,16.446V7.107h7.986c0.754,0,1.304,0.15,1.655,0.452
			c0.302,0.251,0.504,0.753,0.504,1.356v2.209c0,0.652-0.202,1.105-0.504,1.356c-0.351,0.301-0.901,0.452-1.655,0.452h-1.206
			l4.32,3.515h-3.113l-3.766-3.515h-2.061v3.515H77.934L77.934,16.446z"/>
		<polygon style="fill-rule:evenodd;clip-rule:evenodd;fill:#868586;" points="90.64,16.446 90.64,7.107 100.23,7.107 100.23,8.714 
			92.849,8.714 92.849,10.772 97.166,10.772 97.166,12.379 92.849,12.379 92.849,14.688 100.33,14.688 100.33,16.446 90.64,16.446 
					"/>
		<path style="fill-rule:evenodd;clip-rule:evenodd;fill:#868586;" d="M110.533,8.764h-6.126v2.008h5.825
			c0.903,0,1.556,0.151,1.858,0.451c0.349,0.302,0.501,0.905,0.501,1.758v1.256c0,0.852-0.152,1.455-0.501,1.757
			c-0.302,0.301-0.955,0.452-1.858,0.452h-5.774c-0.905,0-1.506-0.151-1.859-0.452c-0.301-0.302-0.452-0.905-0.452-1.757v-0.252
			l1.909-0.401v1.104h6.577V12.58h-5.826c-0.902,0-1.504-0.151-1.807-0.502c-0.352-0.302-0.504-0.854-0.504-1.708V9.316
			c0-0.853,0.152-1.405,0.504-1.707c0.302-0.352,0.904-0.502,1.807-0.502h5.322c0.904,0,1.507,0.15,1.809,0.452
			c0.349,0.301,0.5,0.854,0.5,1.606v0.202l-1.907,0.451V8.764L110.533,8.764z"/>
		<path style="fill-rule:evenodd;clip-rule:evenodd;fill:#868586;" d="M122.908,8.764h-6.123v2.008h5.824
			c0.904,0,1.506,0.151,1.856,0.451c0.302,0.302,0.453,0.905,0.453,1.758v1.256c0,0.852-0.151,1.455-0.453,1.757
			c-0.35,0.301-0.952,0.452-1.856,0.452h-5.774c-0.904,0-1.556-0.151-1.859-0.452c-0.353-0.302-0.501-0.905-0.501-1.757v-0.252
			l1.909-0.401v1.104h6.625V12.58h-5.823c-0.903,0-1.507-0.151-1.857-0.502c-0.302-0.302-0.453-0.854-0.453-1.708V9.316
			c0-0.853,0.151-1.405,0.453-1.707c0.35-0.352,0.954-0.502,1.857-0.502h5.322c0.854,0,1.456,0.15,1.807,0.452
			c0.352,0.301,0.503,0.854,0.503,1.606v0.202l-1.91,0.451V8.764L122.908,8.764z"/>
		<polygon style="fill-rule:evenodd;clip-rule:evenodd;fill:#868586;" points="51.821,16.446 56.239,11.676 51.72,7.107 
			54.633,7.107 57.596,10.27 60.457,7.107 62.917,7.107 58.851,11.425 63.922,16.446 60.959,16.446 57.546,12.83 54.381,16.446 
			51.821,16.446 		"/>
		<polygon style="fill-rule:evenodd;clip-rule:evenodd;fill:#868586;" points="5.423,16.446 0,7.107 2.511,7.107 6.277,13.885 
			9.892,7.107 12.05,7.107 6.93,16.446 5.423,16.446 		"/>
		<path style="fill-rule:evenodd;clip-rule:evenodd;fill:#868586;" d="M13.754,16.446V7.107h1.456l6.577,5.523
			c0.252,0.2,0.453,0.351,0.603,0.502c0.201,0.151,0.352,0.351,0.503,0.502c-0.051-0.502-0.101-0.904-0.101-1.104
			c0-0.202,0-0.402,0-0.503v-4.92h1.959v9.338h-1.506l-6.88-5.774c-0.15-0.15-0.301-0.251-0.402-0.402
			c-0.151-0.1-0.25-0.2-0.35-0.351c0.05,0.301,0.05,0.552,0.05,0.854c0.05,0.251,0.05,0.451,0.05,0.653v5.021H13.754L13.754,16.446z
			"/>
	</g>
	<path style="fill-rule:evenodd;clip-rule:evenodd;fill:#8A113E;" d="M48.695,22.412c0,0.619-0.502,1.121-1.121,1.121H28.897
		c-0.619,0-1.121-0.502-1.121-1.121V1.121C27.776,0.502,28.278,0,28.897,0h18.677c0.619,0,1.121,0.502,1.121,1.121V22.412z"/>
	<path style="fill:#FFFFFF;" d="M36.741,7.097h9.073c0.619,0,1.012-0.463,1.012-1.081V3.028c0-0.619-0.393-1.16-1.012-1.16H35.355
		h-4.483c-0.619,0-1.229,0.541-1.229,1.16v17.556c0,0.619,0.61,1.081,1.229,1.081h4.483h10.459c0.619,0,1.012-0.463,1.012-1.081
		v-2.988c0-0.619-0.393-1.16-1.012-1.16h-9.073v-1.081v-0.787h3.097c0.619,0,1.012-0.463,1.012-1.081v-3.362
		c0-0.619-0.394-1.16-1.012-1.16h-3.097V8.257V7.097z M36.849,10.086h2.88v3.362h-2.88h-1.229v0.786v0.374v0.747v1.121v1.081h1.229
		h8.857v2.988H35.355h-4.591V2.988h4.591h10.351v2.988h-8.857h-1.229v1.16v1.121v0.747v0.373v0.708H36.849z"/>
</g>
</svg>
